<?xml version="1.0" encoding="UTF-8"?>
<!DOCTYPE svg  PUBLIC '-//W3C//DTD SVG 1.1//EN'  'http://www.w3.org/Graphics/SVG/1.1/DTD/svg11.dtd'>
<svg version="1.1" viewBox="0 0 512 512" xml:space="preserve" xmlns="http://www.w3.org/2000/svg">
    <g transform="matrix(1.1233 0 0 .9803 -35.912 -4.5425)">
        <path d="m487.77 134.04c0-31.458-22.288-56.997-49.741-56.997h-356.32c-27.453 0-49.742 25.539-49.742 56.997v263.48c0 31.458 22.289 56.997 49.742 56.997h356.32c27.453 0 49.741-25.539 49.741-56.997v-263.48zm-27.82 0v263.48c0 13.864-9.822 25.119-21.921 25.119h-356.32c-12.099 0-21.922-11.255-21.922-25.119v-263.48c0-13.864 9.823-25.119 21.922-25.119h356.32c12.099 0 21.921 11.255 21.921 25.119z"/>
    </g>
</svg>
